# xmcd
#
# Track frame offsets:
#	183
#	46683
#	105313
#	154545
#	227815
#	239913
#
# Disc length: 3319 seconds
#
# Revision: 2
# Processed by: cddbd v1.4PL0 Copyright (c) Steve Scherf et al.
# Submitted via: audiograbber 1.81.02
#
DISCID=3f0cf506
DTITLE=Prince - Small Club - 2nd Show That Night - II
DYEAR=1988
DGENRE=
TTITLE0=Cold Sweat - Jam (Incl Transmississippirap) (Aftershow - Paard Van Troj
TTITLE0=e In The Hague - 19-8-88)
TTITLE1=Forever In My Life  (Aftershow - Paard Van Troje In The Hague - 19-8-88
TTITLE1=)
TTITLE2=Still Would Stand All Time (Aftershow - Paard Van Troje In The Hague - 
TTITLE2=19-8-88)
TTITLE3=I'll Take U There - Rave Un2 The Joy Fantastic (Aftershow - Paard Van T
TTITLE3=roje In The Hague - 19-8-88)
TTITLE4=Rave Un2 The Joy Fantastic (Encore 1) (Aftershow - Paard Van Troje In T
TTITLE4=he Hague - 19-8-88)
TTITLE5=Rave Un2 The Joy Fantastic (Encore 2) (Aftershow - Paard Van Troje in T
TTITLE5=he Hague - 19-8-88)
EXTD=
EXTT0=
EXTT1=
EXTT2=
EXTT3=
EXTT4=
EXTT5=
PLAYORDER=
